<svg width="150" height="150" viewBox="0 0 150 150" fill="none" xmlns="http://www.w3.org/2000/svg">
<rect x="1.5" y="1.5" width="147" height="147" rx="8.5" stroke="#71A9E2" stroke-width="3"/>
<g clip-path="url(#clip0_83_158)">
<path d="M107.932 25H43V125H107.932V25Z" fill="#3ABFF8"/>
<path d="M57.1618 97.8188C60.9252 97.8188 63.976 94.768 63.976 91.0046C63.976 87.2412 60.9252 84.1904 57.1618 84.1904C53.3985 84.1904 50.3477 87.2412 50.3477 91.0046C50.3477 94.768 53.3985 97.8188 57.1618 97.8188Z" fill="#0F1729"/>
<path d="M85.5403 82.8772C89.3036 82.8772 92.3544 79.8263 92.3544 76.063C92.3544 72.2996 89.3036 69.2488 85.5403 69.2488C81.7769 69.2488 78.7261 72.2996 78.7261 76.063C78.7261 79.8263 81.7769 82.8772 85.5403 82.8772Z" fill="#0F1729"/>
<path d="M72.5301 108.542C70.1217 108.032 67.8567 106.994 65.8994 105.501C63.942 104.008 62.3413 102.098 61.2132 99.9105C59.3897 100.738 57.3566 100.988 55.387 100.627C56.7493 103.995 58.9182 106.977 61.703 109.311C64.4878 111.645 67.8033 113.259 71.358 114.012C72.9481 114.353 74.5706 114.52 76.1968 114.51C74.9458 112.87 74.2472 110.875 74.2016 108.813C73.6404 108.75 73.0798 108.659 72.5301 108.542Z" fill="#0F1729"/>
<path d="M84.0051 115.393C87.7685 115.393 90.8193 112.343 90.8193 108.579C90.8193 104.816 87.7685 101.765 84.0051 101.765C80.2417 101.765 77.1909 104.816 77.1909 108.579C77.1909 112.343 80.2417 115.393 84.0051 115.393Z" fill="#0F1729"/>
<path d="M93.4873 106.076C96.4084 102.391 98.0894 97.877 98.2901 93.1789C98.4907 88.4808 97.2007 83.8396 94.6045 79.9189C93.8174 81.7723 92.4797 83.3389 90.7726 84.4066C92.1357 86.9801 92.8025 89.8652 92.7067 92.7758C92.6109 95.6864 91.7559 98.5214 90.2266 101C91.8218 102.306 92.9631 104.083 93.4873 106.076Z" fill="#0F1729"/>
<path d="M56.636 81.2324C56.8089 81.2229 56.982 81.2182 57.1551 81.2183C58.9808 81.2197 60.7702 81.7292 62.3227 82.6899C63.8248 80.5203 65.822 78.7395 68.149 77.4949C70.476 76.2504 73.0659 75.5779 75.7045 75.5331C75.8146 73.5234 76.5359 71.5954 77.7717 70.0068C73.5478 69.6879 69.32 70.5732 65.5789 72.5602C61.8379 74.5471 58.737 77.5542 56.636 81.2324Z" fill="#0F1729"/>
</g>
<defs>
<clipPath id="clip0_83_158">
<rect width="64.9507" height="100" fill="white" transform="translate(43 25)"/>
</clipPath>
</defs>
</svg>
