<svg width="150" height="150" viewBox="0 0 150 150" fill="none" xmlns="http://www.w3.org/2000/svg">
<rect x="1.5" y="1.5" width="147" height="147" rx="8.5" stroke="#71A9E2" stroke-width="3"/>
<path d="M74.9999 84.5238C80.2597 84.5238 84.5237 80.2599 84.5237 75C84.5237 69.7402 80.2597 65.4762 74.9999 65.4762C69.74 65.4762 65.4761 69.7402 65.4761 75C65.4761 80.2599 69.74 84.5238 74.9999 84.5238Z" fill="#3ABFF8"/>
<path d="M74.9999 96.4286C101.299 96.4286 122.619 86.8347 122.619 75C122.619 63.1653 101.299 53.5714 74.9999 53.5714C48.7006 53.5714 27.3809 63.1653 27.3809 75C27.3809 86.8347 48.7006 96.4286 74.9999 96.4286Z" stroke="#3ABFF8" stroke-width="3"/>
<path d="M56.4422 85.7143C69.5918 108.49 88.5603 122.157 98.8094 116.239C109.059 110.322 106.707 87.0615 93.5576 64.2857C80.4079 41.5099 61.4395 27.8433 51.1904 33.7607C40.9412 39.678 43.2926 62.9384 56.4422 85.7143Z" stroke="#3ABFF8" stroke-width="3"/>
<path d="M56.4423 64.2857C43.2927 87.0615 40.9413 110.322 51.1905 116.239C61.4396 122.157 80.408 108.49 93.5577 85.7143C106.707 62.9384 109.059 39.678 98.8095 33.7607C88.5604 27.8434 69.5919 41.5099 56.4423 64.2857Z" stroke="#3ABFF8" stroke-width="3"/>
</svg>
