<svg width="150" height="150" viewBox="0 0 150 150" fill="none" xmlns="http://www.w3.org/2000/svg">
<rect x="1.5" y="1.5" width="147" height="147" rx="8.5" stroke="#71A9E2" stroke-width="3"/>
<g clip-path="url(#clip0_83_215)">
<path fill-rule="evenodd" clip-rule="evenodd" d="M75.0333 45C61.6902 45 53.3529 51.6314 50.0157 64.8941C55.0196 58.2627 60.8569 55.7765 67.5275 57.4333C71.3333 58.3784 74.0549 61.1235 77.0647 64.1627C81.9706 69.1118 87.649 74.8392 100.049 74.8392C113.39 74.8392 121.729 68.2078 125.065 54.9471C120.063 61.5784 114.225 64.0647 107.555 62.4059C103.747 61.4608 101.025 58.7157 98.0157 55.6784C93.1098 50.7255 87.4333 45 75.0333 45ZM50.0157 74.8392C36.6745 74.8392 28.3353 81.4706 25 94.7333C30.0039 88.102 35.8412 85.6157 42.5098 87.2725C46.3176 88.2176 49.0392 90.9627 52.049 94.002C56.9549 98.951 62.6314 104.678 75.0333 104.678C88.3745 104.678 96.7137 98.049 100.049 84.7863C95.0451 91.4176 89.2078 93.9039 82.5373 92.2471C78.7314 91.3 76.0098 88.5549 73 85.5176C68.0941 80.5686 62.4157 74.8392 50.0157 74.8392Z" fill="#3ABFF8"/>
</g>
<defs>
<clipPath id="clip0_83_215">
<rect width="100" height="60.7843" fill="white" transform="translate(25 45)"/>
</clipPath>
</defs>
</svg>
