<svg width="150" height="150" viewBox="0 0 150 150" fill="none" xmlns="http://www.w3.org/2000/svg">
<rect x="1.5" y="1.5" width="147" height="147" rx="8.5" stroke="#71A9E2" stroke-width="3"/>
<g clip-path="url(#clip0_83_188)">
<path d="M125 25H25V125H125V25Z" fill="#3ABFF8"/>
<path d="M92.1745 103.125C94.1888 106.414 96.8094 108.832 101.444 108.832C105.338 108.832 107.825 106.886 107.825 104.197C107.825 100.975 105.27 99.8334 100.984 97.9588L98.6348 96.9508C91.8539 94.0619 87.3491 90.4429 87.3491 82.7921C87.3491 75.7445 92.719 70.3794 101.111 70.3794C107.086 70.3794 111.381 72.4588 114.476 77.9032L107.159 82.6016C105.548 79.7127 103.809 78.5746 101.111 78.5746C98.3587 78.5746 96.6142 80.3207 96.6142 82.6016C96.6142 85.4207 98.3602 86.5619 102.392 88.308L104.741 89.3143C112.725 92.7381 117.233 96.2286 117.233 104.076C117.233 112.537 110.587 117.171 101.662 117.171C92.9348 117.171 87.2967 113.013 84.538 107.562L92.1745 103.125ZM58.9793 103.94C60.4555 106.559 61.7983 108.773 65.0269 108.773C68.1142 108.773 70.0618 107.565 70.0618 102.868V70.9159H79.4586V102.995C79.4586 112.725 73.7539 117.154 65.4269 117.154C57.9031 117.154 53.546 113.26 51.3301 108.571L58.9793 103.94Z" fill="#0F1729"/>
</g>
<defs>
<clipPath id="clip0_83_188">
<rect width="100" height="100" fill="white" transform="translate(25 25)"/>
</clipPath>
</defs>
</svg>
