<svg width="150" height="150" viewBox="0 0 150 150" fill="none" xmlns="http://www.w3.org/2000/svg">
<rect x="1.5" y="1.5" width="147" height="147" rx="8.5" stroke="#71A9E2" stroke-width="3"/>
<g clip-path="url(#clip0_83_132)">
<path d="M58.6699 125C67.8681 125 75.3333 117.533 75.3333 108.333V91.6666H58.6699C49.4718 91.6666 42.0066 99.1333 42.0066 108.333C42.0066 117.533 49.4718 125 58.6699 125Z" fill="#3ABFF8"/>
<path d="M42.0066 75C42.0066 65.8 49.4718 58.3334 58.6699 58.3334H75.3333V91.6667H58.6699C49.4718 91.6667 42.0066 84.2 42.0066 75Z" fill="#3ABFF8"/>
<path d="M42.0066 41.6667C42.0066 32.4667 49.4718 25 58.6699 25H75.3333V58.3333H58.6699C49.4718 58.3333 42.0066 50.8667 42.0066 41.6667Z" fill="#3ABFF8"/>
<path d="M75.3333 25H91.9966C101.195 25 108.66 32.4667 108.66 41.6667C108.66 50.8667 101.195 58.3333 91.9966 58.3333H75.3333V25Z" fill="#3ABFF8"/>
<path d="M108.66 75C108.66 84.2 101.195 91.6667 91.9966 91.6667C82.7984 91.6667 75.3333 84.2 75.3333 75C75.3333 65.8 82.7984 58.3334 91.9966 58.3334C101.195 58.3334 108.66 65.8 108.66 75Z" fill="#3ABFF8"/>
</g>
<defs>
<clipPath id="clip0_83_132">
<rect width="66.6667" height="100" fill="white" transform="translate(42 25)"/>
</clipPath>
</defs>
</svg>
