<svg width="150" height="150" viewBox="0 0 150 150" fill="none" xmlns="http://www.w3.org/2000/svg">
<rect x="1.5" y="1.5" width="147" height="147" rx="8.5" stroke="#71A9E2" stroke-width="3"/>
<path d="M38.937 115.004L30.9126 25H119.088L111.055 114.989L74.9462 125L38.937 115.004Z" fill="#3ABFF8"/>
<path d="M104.177 109.259L111.042 32.359H75V117.348L104.177 109.259Z" fill="#3ABFF8"/>
<path d="M49.3086 65.7402L50.2979 76.7787H75V65.7402H49.3086ZM48.3241 54.4365H75V43.3978H47.3206L48.3241 54.4365ZM75 94.4086L74.9516 94.4215L62.6579 91.1019L61.8721 82.298H50.7909L52.3375 99.6302L74.9493 105.908L75 105.893V94.4086Z" fill="#0F1729"/>
<path d="M74.9619 65.7402V76.7787H88.5547L87.2734 91.0949L74.9619 94.4178V105.902L97.5916 99.6302L97.7576 97.7652L100.351 68.7043L100.621 65.7402L102.614 43.3978H74.9619V54.4365H90.5164L89.5117 65.7402H74.9619Z" fill="#0F1729"/>
</svg>
