<svg width="150" height="150" viewBox="0 0 150 150" fill="none" xmlns="http://www.w3.org/2000/svg">
<rect x="1.5" y="1.5" width="147" height="147" rx="8.5" stroke="#71A9E2" stroke-width="3"/>
<g clip-path="url(#clip0_83_193)">
<path d="M74.4264 105.245C74.0963 105.245 73.7686 105.158 73.4792 104.992L70.4643 103.207C70.014 102.955 70.2337 102.866 70.3823 102.815C70.9827 102.604 71.1045 102.557 71.7454 102.193C71.8127 102.155 71.9009 102.168 71.9698 102.209L74.286 103.583C74.3696 103.628 74.4883 103.628 74.5659 103.583L83.5967 98.3704C83.6804 98.323 83.7346 98.2258 83.7346 98.1263V87.7052C83.7346 87.6012 83.6804 87.5085 83.5949 87.4565L74.5677 82.2482C74.484 82.1985 74.3733 82.1985 74.2896 82.2482L65.2642 87.4565C65.1767 87.5063 65.1211 87.6035 65.1211 87.7029V98.124C65.1211 98.2235 65.1753 98.3185 65.2612 98.3659L67.7343 99.7946C69.077 100.466 69.8976 99.6748 69.8976 98.8791V88.5936C69.8976 88.4466 70.0129 88.3336 70.1598 88.3336H71.3037C71.4461 88.3336 71.5636 88.4466 71.5636 88.5936V98.8836C71.5636 100.674 70.5871 101.702 68.8894 101.702C68.3672 101.702 67.9558 101.702 66.8074 101.137L64.4384 99.772C63.8529 99.4329 63.4912 98.7999 63.4912 98.124V87.7029C63.4912 87.0248 63.8529 86.3918 64.4384 86.0573L73.4783 80.8422C74.0502 80.5189 74.8098 80.5189 75.3772 80.8422L84.4058 86.0595C84.989 86.3963 85.3529 87.027 85.3529 87.7052V98.1263C85.3529 98.8022 84.989 99.4329 84.4058 99.772L75.3772 104.987C75.0878 105.154 74.76 105.24 74.4255 105.24" fill="#3ABFF8"/>
<path d="M77.2157 98.0642C73.2643 98.0642 72.4358 96.2503 72.4358 94.7289C72.4358 94.5843 72.5524 94.469 72.6973 94.469H73.8638C73.9926 94.469 74.1011 94.5628 74.1215 94.6901C74.2978 95.8787 74.8222 96.4782 77.2116 96.4782C79.115 96.4782 79.9243 96.0482 79.9243 95.0389C79.9243 94.4579 79.6937 94.0261 76.7369 93.7368C74.2639 93.4927 72.7358 92.9479 72.7358 90.9699C72.7358 89.1479 74.2729 88.0628 76.8477 88.0628C79.7389 88.0628 81.1721 89.0665 81.353 91.2231C81.3597 91.2977 81.3326 91.37 81.2829 91.4243C81.2332 91.4762 81.1631 91.5079 81.0907 91.5079H79.9175C79.7954 91.5079 79.6892 91.422 79.6643 91.3044C79.3818 90.0544 78.6991 89.6542 76.8432 89.6542C74.7657 89.6542 74.5239 90.3776 74.5239 90.9202C74.5239 91.578 74.8087 91.7701 77.6118 92.1408C80.3877 92.5093 81.7056 93.0292 81.7056 94.9801C81.7056 96.9468 80.0645 98.0748 77.2026 98.0748M88.2024 87.023H88.5053C88.754 87.023 88.8015 86.8489 88.8015 86.7472C88.8015 86.4804 88.6184 86.4804 88.5166 86.4804H88.2047L88.2024 87.023ZM87.834 86.1685H88.5053C88.7359 86.1685 89.188 86.1685 89.188 86.6839C89.188 87.0433 88.9574 87.1179 88.8195 87.1631C89.0886 87.1812 89.1066 87.3575 89.1428 87.6062C89.1609 87.7622 89.1903 88.0312 89.2445 88.1216H88.8308C88.8195 88.0312 88.7563 87.5339 88.7563 87.5067C88.7291 87.396 88.6907 87.3417 88.5528 87.3417H88.2115V88.1239H87.834V86.1685ZM87.0269 87.1405C87.0269 87.9498 87.6802 88.6054 88.4827 88.6054C89.292 88.6054 89.9453 87.9362 89.9453 87.1405C89.9453 86.329 89.283 85.6847 88.4805 85.6847C87.6893 85.6847 87.0247 86.3199 87.0247 87.1383M90.2256 87.145C90.2256 88.1035 89.4412 88.8857 88.485 88.8857C87.5356 88.8857 86.7444 88.1126 86.7444 87.145C86.7444 86.1594 87.5536 85.4044 88.485 85.4044C89.4231 85.4044 90.2233 86.1617 90.2233 87.145" fill="#3ABFF8"/>
<path fill-rule="evenodd" clip-rule="evenodd" d="M46.4607 64.4692C46.4607 64.0533 46.2414 63.6712 45.8825 63.4644L36.3077 57.9554C36.1461 57.8605 35.965 57.8108 35.7814 57.804H35.6824C35.4989 57.8108 35.3178 57.8605 35.1535 57.9554L25.5792 63.4644C25.2224 63.6723 25 64.0544 25 64.4703L25.021 79.3085C25.021 79.5143 25.1273 79.7064 25.3081 79.8081C25.4844 79.9166 25.706 79.9166 25.8823 79.8081L31.5743 76.5484C31.9338 76.3346 32.153 75.9566 32.153 75.5447V68.6128C32.153 68.1991 32.3723 67.8171 32.7306 67.6113L35.1539 66.2157C35.3339 66.1117 35.5314 66.0602 35.7326 66.0602C35.9306 66.0602 36.1327 66.1113 36.3077 66.2155L38.7299 67.6107C39.0884 67.8164 39.3086 68.1984 39.3086 68.6121V75.5436C39.3086 75.955 39.5308 76.3348 39.8884 76.5473L45.5768 79.8047C45.7554 79.911 45.9776 79.911 46.1555 79.8047C46.331 79.703 46.4422 79.5109 46.4422 79.3051L46.4607 64.4692ZM91.6418 72.1948C91.6418 72.2981 91.5869 72.3938 91.4971 72.4448L88.2085 74.3405C88.1192 74.3919 88.0089 74.3919 87.9198 74.3405L84.6307 72.4448C84.5403 72.3935 84.486 72.2979 84.486 72.1948V68.398C84.486 68.2945 84.5403 68.1991 84.6284 68.1471L87.9153 66.2482C88.0057 66.1962 88.1165 66.1962 88.2069 66.2482L91.496 68.1471C91.5864 68.1991 91.6407 68.2945 91.6407 68.398L91.6418 72.1948ZM92.5302 44.0732C92.3507 43.9733 92.1323 43.976 91.9551 44.0793C91.7788 44.1833 91.6698 44.3732 91.6698 44.5789V59.2724C91.6698 59.4171 91.593 59.5505 91.4677 59.6228C91.3434 59.6951 91.1885 59.6951 91.0631 59.6228L88.6646 58.2414C88.3075 58.0348 87.8676 58.0348 87.5091 58.2414L77.9311 63.7691C77.5733 63.9748 77.3524 64.3568 77.3524 64.7683V75.8268C77.3524 76.2405 77.5733 76.6203 77.9311 76.8283L87.5091 82.3598C87.8667 82.5655 88.307 82.5655 88.6658 82.3598L98.2437 76.826C98.6009 76.618 98.8224 76.2383 98.8224 75.8246V48.264C98.8224 47.8445 98.5941 47.4586 98.2279 47.2536L92.5302 44.0732ZM124.425 68.2981C124.781 68.0915 125 67.7099 125 67.2985V64.6184C125 64.2061 124.78 63.8256 124.424 63.6181L114.907 58.0933C114.548 57.8854 114.107 57.8854 113.747 58.0933L104.172 63.6204C103.812 63.8283 103.593 64.2081 103.593 64.6218V75.6758C103.593 76.0918 103.817 76.4761 104.176 76.6818L113.691 82.1048C114.041 82.306 114.471 82.3083 114.826 82.1116L120.581 78.9129C120.762 78.8112 120.877 78.6191 120.877 78.4111C120.877 78.2031 120.766 78.0087 120.586 77.907L110.951 72.3777C110.77 72.276 110.66 72.0838 110.66 71.8781V68.4105C110.66 68.2034 110.768 68.0126 110.949 67.9095L113.946 66.1802C114.125 66.0762 114.344 66.0762 114.523 66.1802L117.523 67.9095C117.701 68.0112 117.812 68.2034 117.812 68.4091V71.1353C117.812 71.341 117.923 71.5332 118.101 71.6372C118.28 71.7389 118.501 71.7389 118.68 71.6349L124.425 68.2981Z" fill="#3ABFF8"/>
<path fill-rule="evenodd" clip-rule="evenodd" d="M114.187 67.781C114.255 67.741 114.34 67.741 114.409 67.781L116.247 68.8412C116.315 68.881 116.357 68.9542 116.357 69.0333V71.156C116.357 71.2351 116.315 71.3083 116.247 71.3481L114.409 72.4083C114.34 72.4483 114.255 72.4483 114.187 72.4083L112.351 71.3481C112.28 71.3083 112.238 71.2351 112.238 71.156V69.0333C112.238 68.9542 112.278 68.881 112.348 68.8412L114.187 67.781Z" fill="#3ABFF8"/>
<mask id="mask0_83_193" style="mask-type:luminance" maskUnits="userSpaceOnUse" x="51" y="57" width="22" height="26">
<path d="M61.3326 58.1485L51.8089 63.6454C51.4522 63.8511 51.2334 64.2309 51.2334 64.6414V75.6431C51.2334 76.0538 51.4522 76.4333 51.8089 76.6391L61.3333 82.1403C61.6893 82.3454 62.1283 82.3454 62.4839 82.1403L72.0067 76.6391C72.3616 76.4333 72.5809 76.0536 72.5809 75.6431V64.6414C72.5809 64.2309 72.3616 63.8511 72.0044 63.6454L62.483 58.1485C62.3044 58.0461 62.1055 57.9948 61.9066 57.9948C61.7076 57.9948 61.5087 58.0461 61.3301 58.1485" fill="white"/>
</mask>
<g mask="url(#mask0_83_193)">
<path d="M82.2049 62.7121L55.3688 49.558L41.6089 77.6281L68.4443 90.7829L82.2049 62.7121Z" fill="#3ABFF8"/>
</g>
<mask id="mask1_83_193" style="mask-type:luminance" maskUnits="userSpaceOnUse" x="51" y="58" width="22" height="25">
<path d="M51.4692 76.3416C51.5603 76.4598 51.6743 76.5622 51.8083 76.6391L59.9779 81.358L61.3388 82.1401C61.5422 82.2577 61.7742 82.3074 62.002 82.2905C62.078 82.2844 62.1539 82.2701 62.2281 82.2491L72.2726 63.8573C72.1957 63.7736 72.1058 63.7036 72.0049 63.6448L65.769 60.0438L62.4727 58.1472C62.3791 58.0929 62.2776 58.0545 62.1743 58.0273L51.4692 76.3416Z" fill="white"/>
</mask>
<g mask="url(#mask1_83_193)">
<path d="M39.8662 66.6027L58.8152 92.2492L83.8756 73.734L64.9255 48.0881L39.8662 66.6027Z" fill="#3ABFF8"/>
</g>
<mask id="mask2_83_193" style="mask-type:luminance" maskUnits="userSpaceOnUse" x="51" y="57" width="22" height="26">
<path d="M61.7928 58.0011C61.6329 58.0169 61.4767 58.0667 61.3327 58.1485L51.8362 63.6297L62.0765 82.2814C62.2189 82.2611 62.359 82.2136 62.4856 82.1404L72.0093 76.6391C72.3032 76.4686 72.5044 76.1802 72.5654 75.8533L62.1262 58.0199C62.0493 58.0047 61.9725 57.9968 61.8934 57.9968C61.8617 57.9968 61.8301 57.9984 61.7984 58.0013" fill="white"/>
</mask>
<g mask="url(#mask2_83_193)">
<path d="M51.8359 57.9968V82.2819H72.5613V57.9968H51.8359Z" fill="#3ABFF8"/>
</g>
</g>
<defs>
<clipPath id="clip0_83_193">
<rect width="100" height="61.2447" fill="white" transform="translate(25 44)"/>
</clipPath>
</defs>
</svg>
