<svg width="150" height="150" viewBox="0 0 150 150" fill="none" xmlns="http://www.w3.org/2000/svg">
<rect x="1.5" y="1.5" width="147" height="147" rx="8.5" stroke="#71A9E2" stroke-width="3"/>
<path d="M38.8672 114.844L30.8594 25H118.945L110.938 114.844L74.8047 125" fill="#3ABFF8"/>
<path d="M75 117.188L104.102 109.18L110.938 32.2266H75" fill="#3ABFF8"/>
<path d="M75 65.625H60.3516L59.375 54.2969H75V43.3594H74.8047H47.2656L47.4609 46.2891L50.1953 76.7578H75V65.625ZM75 94.3359H74.8047L62.5 91.0156L61.7188 82.2266H55.8594H50.7812L52.1484 99.6094L74.8047 105.859H75V94.3359Z" fill="#0F1729"/>
<path d="M74.8047 65.625V76.7578H88.4766L87.1094 91.0156L74.8047 94.3359V105.859L97.4609 99.6094L97.6562 97.6562L100.195 68.5547L100.586 65.625H97.4609H74.8047ZM74.8047 43.3594V50.1953V54.2969H101.562L101.758 51.9531L102.344 46.2891L102.539 43.3594H74.8047Z" fill="#0F1729"/>
</svg>
