<svg width="150" height="150" viewBox="0 0 150 150" fill="none" xmlns="http://www.w3.org/2000/svg">
<rect x="1.5" y="1.5" width="147" height="147" rx="8.5" stroke="#71A9E2" stroke-width="3"/>
<g clip-path="url(#clip0_83_173)">
<mask id="mask0_83_173" style="mask-type:luminance" maskUnits="userSpaceOnUse" x="25" y="25" width="100" height="100">
<path d="M25 25.1228H124.877V125H25V25.1228Z" fill="white"/>
</mask>
<g mask="url(#mask0_83_173)">
<path d="M122.996 70.6141L79.3869 27.0087C78.7895 26.4109 78.0802 25.9367 77.2995 25.6132C76.5188 25.2897 75.682 25.1232 74.8369 25.1232C73.9918 25.1232 73.155 25.2897 72.3743 25.6132C71.5936 25.9367 70.8843 26.4109 70.2869 27.0087L61.2347 36.0652L72.7195 47.55C74.0697 47.0914 75.5214 47.0198 76.9102 47.3433C78.299 47.6668 79.5695 48.3724 80.5782 49.3804C81.5925 50.3957 82.3005 51.676 82.6213 53.0748C82.9421 54.4736 82.8628 55.9344 82.3923 57.2902L93.4652 68.3598C94.8213 67.8888 96.2828 67.8094 97.6819 68.1309C99.0811 68.4523 100.361 69.1615 101.376 70.1772C102.087 70.8878 102.651 71.7314 103.035 72.6599C103.42 73.5884 103.618 74.5836 103.618 75.5886C103.618 76.5936 103.42 77.5888 103.035 78.5173C102.651 79.4458 102.087 80.2894 101.376 81C99.9392 82.4354 97.9912 83.2416 95.9603 83.2416C93.9293 83.2416 91.9814 82.4354 90.5445 81C89.4771 79.9309 88.7499 78.5698 88.4543 77.0882C88.1588 75.6067 88.3082 74.0708 88.8836 72.6739L78.5575 62.3511V89.5217C79.6475 90.0601 80.5934 90.8504 81.3171 91.8272C82.0407 92.804 82.5213 93.9391 82.7189 95.1386C82.9165 96.3381 82.8255 97.5673 82.4534 98.7246C82.0813 99.8819 81.4389 100.934 80.5793 101.793C79.8687 102.504 79.0251 103.068 78.0966 103.453C77.1681 103.837 76.1729 104.035 75.1679 104.035C74.1629 104.035 73.1677 103.837 72.2392 103.453C71.3107 103.068 70.467 102.504 69.7565 101.793C69.0456 101.083 68.4817 100.239 68.0969 99.3106C67.7122 98.382 67.5141 97.3867 67.5141 96.3815C67.5141 95.3764 67.7122 94.3811 68.0969 93.4525C68.4817 92.5239 69.0456 91.6802 69.7565 90.9696C70.4726 90.252 71.3237 89.6835 72.2608 89.2967V61.8761C71.3276 61.4917 70.4795 60.9267 69.7652 60.2135C69.051 59.5004 68.4847 58.6532 68.0989 57.7205C67.713 56.7878 67.5153 55.7882 67.517 54.7788C67.5186 53.7695 67.7197 52.7705 68.1086 51.8391L56.7847 40.513L26.8804 70.4098C25.6753 71.6172 24.9985 73.2534 24.9985 74.9592C24.9985 76.6651 25.6753 78.3013 26.8804 79.5087L70.4912 123.12C71.6986 124.324 73.3346 125.001 75.0402 125.001C76.7458 125.001 78.3817 124.324 79.5891 123.12L122.996 79.713C124.201 78.5056 124.877 76.8695 124.877 75.1636C124.877 73.4577 124.201 71.8215 122.996 70.6141Z" fill="#3ABFF8"/>
</g>
</g>
<defs>
<clipPath id="clip0_83_173">
<rect width="100" height="100" fill="white" transform="translate(25 25)"/>
</clipPath>
</defs>
</svg>
