<svg width="150" height="150" viewBox="0 0 150 150" fill="none" xmlns="http://www.w3.org/2000/svg">
<rect x="1.5" y="1.5" width="147" height="147" rx="8.5" stroke="#71A9E2" stroke-width="3"/>
<g clip-path="url(#clip0_83_219)">
<path d="M111.055 81.0859C107.558 81.1055 104.531 81.9453 101.992 83.1953C101.055 81.3398 100.117 79.7188 99.9608 78.5078C99.785 77.1016 99.5702 76.2422 99.785 74.5625C99.9999 72.8828 100.976 70.5 100.976 70.3047C100.957 70.1289 100.762 69.2695 98.7499 69.25C96.7382 69.2305 94.9999 69.6406 94.8046 70.168C94.6093 70.6953 94.2186 71.9062 93.9647 73.1562C93.6132 74.9922 89.9413 81.4961 87.8514 84.9141C87.1679 83.5859 86.5819 82.4141 86.4647 81.4766C86.289 80.0703 86.0741 79.2109 86.2889 77.5312C86.5038 75.8516 87.4804 73.4688 87.4804 73.2734C87.4608 73.0977 87.2655 72.2383 85.2538 72.2188C83.2421 72.1992 81.5038 72.6094 81.3085 73.1367C81.1132 73.6641 80.8983 74.9141 80.4686 76.125C80.0585 77.3359 75.1757 88.1953 73.9061 91.0273C73.2616 92.4727 72.6952 93.625 72.285 94.4063C71.8749 95.1875 72.2655 94.4648 72.2264 94.543C71.8749 95.207 71.6796 95.5781 71.6796 95.5781V95.5977C71.4061 96.0859 71.1132 96.5547 70.9764 96.5547C70.8788 96.5547 70.6835 95.2461 71.0155 93.4492C71.7382 89.6797 73.496 83.8008 73.4764 83.5859C73.4764 83.4883 73.8085 82.4531 72.3436 81.9258C70.9179 81.3984 70.41 82.2773 70.2929 82.2773C70.1757 82.2773 70.078 82.5898 70.078 82.5898C70.078 82.5898 71.66 75.9688 67.0507 75.9688C64.16 75.9688 60.1757 79.1133 58.203 81.9844C56.953 82.668 54.2968 84.1133 51.4843 85.6562C50.41 86.2422 49.2968 86.8672 48.2421 87.4336L48.0272 87.1992C42.4413 81.2422 32.1093 77.0234 32.5389 69.0156C32.6952 66.1055 33.7108 58.4297 52.3827 49.1328C67.6757 41.5156 79.9218 43.6055 82.0507 48.2539C85.078 54.8945 75.5077 67.2383 59.6093 69.0156C53.5546 69.6992 50.371 67.3555 49.5702 66.4766C48.7304 65.5586 48.6132 65.5195 48.3007 65.6953C47.7929 65.9688 48.1054 66.7891 48.3007 67.2773C48.7694 68.5078 50.7225 70.6953 54.0429 71.7891C56.953 72.7461 64.0624 73.2734 72.6561 69.9531C82.285 66.2227 89.8046 55.8711 87.5975 47.2188C85.3514 38.4102 70.7421 35.5195 56.9335 40.4219C48.7108 43.3516 39.8046 47.9219 33.3983 53.918C25.7811 61.0273 24.5702 67.2383 25.078 69.8164C26.8554 79.0156 39.5311 85.0117 44.6093 89.4453C44.3554 89.582 44.121 89.7188 43.9061 89.8359C41.3671 91.0859 31.6991 96.1445 29.2772 101.496C26.5429 107.551 29.7069 111.906 31.8163 112.492C38.3397 114.309 45.0194 111.047 48.6327 105.676C52.2264 100.305 51.7968 93.332 50.1366 90.1484L50.078 90.0313L52.0702 88.8594C53.3593 88.0977 54.6288 87.3945 55.7421 86.7891C55.1171 88.4883 54.6679 90.5 54.4335 93.4297C54.16 96.8672 55.5663 101.32 57.4218 103.078C58.2421 103.84 59.2186 103.859 59.8241 103.859C61.9725 103.859 62.9491 102.082 64.0233 99.9531C65.3514 97.3555 66.5233 94.3477 66.5233 94.3477C66.5233 94.3477 65.0585 102.492 69.0624 102.492C70.5272 102.492 71.9921 100.598 72.6561 99.6211V99.6406C72.6561 99.6406 72.6952 99.582 72.7733 99.4453C72.9296 99.2109 73.0077 99.0742 73.0077 99.0742V99.0352C73.5936 98.0195 74.9022 95.6953 76.8554 91.8477C79.3749 86.8867 81.7968 80.6758 81.7968 80.6758C81.7968 80.6758 82.0311 82.1992 82.7538 84.6992C83.1835 86.1836 84.121 87.8047 84.8436 89.3867C84.2577 90.207 83.9061 90.6758 83.9061 90.6758L83.9257 90.6953C83.4569 91.3203 82.9296 91.9844 82.3827 92.6484C80.3905 95.0313 78.0077 97.7461 77.6952 98.5273C77.3241 99.4453 77.4022 100.129 78.1249 100.676C78.6522 101.066 79.5897 101.145 80.5858 101.066C82.3827 100.949 83.6327 100.5 84.2577 100.227C85.2343 99.875 86.3475 99.3477 87.4218 98.5664C89.3749 97.1211 90.5663 95.0703 90.4491 92.3359C90.3905 90.832 89.9022 89.3477 89.2968 87.9414C89.4725 87.6875 89.6483 87.4336 89.8241 87.1602C92.91 82.6484 95.2929 77.6875 95.2929 77.6875C95.2929 77.6875 95.5272 79.2109 96.2499 81.7109C96.621 82.9805 97.3632 84.3672 98.0272 85.7344C95.1366 88.0977 93.3202 90.832 92.6952 92.6289C91.5429 95.9492 92.4413 97.4531 94.1405 97.8047C94.9022 97.9609 95.996 97.6094 96.8163 97.2578C97.8319 96.9258 99.0624 96.3594 100.195 95.5195C102.148 94.0742 104.023 92.0625 103.926 89.3477C103.867 88.0977 103.535 86.8672 103.086 85.6953C105.547 84.6797 108.73 84.0938 112.773 84.582C121.465 85.5977 123.183 91.0274 122.851 93.293C122.519 95.5586 120.703 96.8086 120.098 97.1992C119.492 97.5703 119.297 97.707 119.355 97.9805C119.433 98.3906 119.707 98.3711 120.234 98.293C120.957 98.1758 124.805 96.4375 124.961 92.2578C125.195 86.8867 120.098 81.0273 111.055 81.0859ZM44.0233 103.684C41.1522 106.828 37.1093 108.02 35.3905 107.004C33.535 105.93 34.2577 101.301 37.7929 97.9609C39.9413 95.9297 42.7343 94.0547 44.5702 92.9024C44.9804 92.6484 45.6054 92.2774 46.3475 91.8281C46.4647 91.75 46.5429 91.7109 46.5429 91.7109C46.6796 91.6328 46.8358 91.5352 46.9921 91.4375C48.3007 96.2031 47.0507 100.383 44.0233 103.684ZM65.0194 89.4063C64.0233 91.8477 61.9139 98.1172 60.6444 97.7656C59.5507 97.4727 58.8866 92.7266 60.4296 88.0391C61.2108 85.6758 62.871 82.8633 63.8475 81.7695C65.4296 80.0117 67.1483 79.4258 67.578 80.1484C68.0858 81.0859 65.6444 87.8828 65.0194 89.4063ZM82.3436 97.6875C81.9139 97.9024 81.5233 98.0586 81.3475 97.9414C81.2108 97.8633 81.5233 97.5703 81.5233 97.5703C81.5233 97.5703 83.6913 95.2461 84.5507 94.1719C85.0389 93.5469 85.6249 92.8242 86.2499 92.0039V92.2383C86.2499 95.0508 83.5546 96.9258 82.3436 97.6875ZM95.703 94.6406C95.3905 94.4063 95.4296 93.6836 96.4843 91.418C96.8944 90.5195 97.8319 89.0156 99.453 87.5898C99.6483 88.1758 99.7655 88.7422 99.746 89.2695C99.7264 92.7852 97.2264 94.0938 95.703 94.6406Z" fill="#3ABFF8"/>
</g>
<defs>
<clipPath id="clip0_83_219">
<rect width="100" height="75" fill="white" transform="translate(25 38)"/>
</clipPath>
</defs>
</svg>
